# xmcd
#
# Track frame offsets:
#	182
#	18732
#	38742
#	56042
#	68620
#	86395
#	100405
#	113337
#	139737
#	157162
#	177497
#
# Disc length: 2626 seconds
# Revision: 3
# Processed by: cddbd v1.5.2PL0 Copyright (c) Steve Scherf et al.
# Submitted via: dBpowerAMP V12.0
#
DISCID=8f0a400b
DTITLE=Don Edwards - Goin' Back To Texas
DYEAR=1993
DGENRE=Country
TTITLE0=Goin' Back To Texas
TTITLE1=Coyotes
TTITLE2=The Old Cow Man
TTITLE3=Prairie Lullabye
TTITLE4=The Rancher's Song
TTITLE5=Lonely Cowboy
TTITLE6=Line Shack Blues
TTITLE7=Doney Gal
TTITLE8=Will James
TTITLE9=Say Goodbye To Montana
TTITLE10=Texas Sand
EXTD=
EXTT0=
EXTT1=
EXTT2=
EXTT3=
EXTT4=
EXTT5=
EXTT6=
EXTT7=
EXTT8=
EXTT9=
EXTT10=
PLAYORDER=
